<mxfile>
    <diagram id="FqTtbH6P4J4EdTwo04oB" name="第 1 页">
        <mxGraphModel dx="306" dy="163" grid="1" gridSize="10" guides="1" tooltips="1" connect="1" arrows="1" fold="1" page="1" pageScale="1" pageWidth="827" pageHeight="1169" math="0" shadow="0">
            <root>
                <mxCell id="0"/>
                <mxCell id="1" parent="0"/>
                <mxCell id="2" value="&lt;font style=&quot;font-size: 10px&quot;&gt;Geometry&lt;/font&gt;" style="rounded=1;whiteSpace=wrap;html=1;fillColor=#60a917;strokeColor=#2D7600;fontColor=#ffffff;" vertex="1" parent="1">
                    <mxGeometry x="10" y="110" width="50" height="20" as="geometry"/>
                </mxCell>
                <mxCell id="5" value="&lt;font style=&quot;font-size: 5px&quot;&gt;FrustumOutlineGeometry&lt;br&gt;视锥轮廓线&lt;br&gt;&lt;/font&gt;" style="rounded=1;whiteSpace=wrap;html=1;fillColor=#647687;strokeColor=#314354;fontColor=#ffffff;" vertex="1" parent="1">
                    <mxGeometry x="80" y="25" width="70" height="30" as="geometry"/>
                </mxCell>
                <mxCell id="10" value="" style="shape=curlyBracket;whiteSpace=wrap;html=1;rounded=1;size=0.5;" vertex="1" parent="1">
                    <mxGeometry x="60" y="40" width="20" height="160" as="geometry"/>
                </mxCell>
                <mxCell id="16" style="edgeStyle=orthogonalEdgeStyle;rounded=0;orthogonalLoop=1;jettySize=auto;html=1;exitX=0;exitY=0.5;exitDx=0;exitDy=0;entryX=1;entryY=0.588;entryDx=0;entryDy=0;entryPerimeter=0;fontSize=6;" edge="1" parent="1" source="15" target="5">
                    <mxGeometry relative="1" as="geometry"/>
                </mxCell>
                <mxCell id="15" value="&lt;p style=&quot;line-height: 20% ; font-size: 6px&quot;&gt;&lt;/p&gt;&lt;h4 class=&quot;name&quot; id=&quot;PerspectiveFrustum&quot; style=&quot;position: relative ; margin: 18px 0px ; padding: 2px 4px ; clear: both ; font-size: 6px ; line-height: 100%&quot;&gt;&lt;font style=&quot;font-size: 6px&quot;&gt;&lt;font face=&quot;consolas, liberation mono, menlo, courier new, courier, monaco, monospace&quot; style=&quot;font-size: 6px&quot;&gt;&lt;span style=&quot;font-weight: 400 ; letter-spacing: -0.12px ; font-size: 6px&quot;&gt;PerspectiveFrustum&lt;/span&gt;&lt;/font&gt;&lt;/font&gt;视锥&lt;/h4&gt;&lt;p style=&quot;font-size: 6px&quot;&gt;&lt;/p&gt;" style="rounded=1;whiteSpace=wrap;html=1;fontSize=6;spacing=2;" vertex="1" parent="1">
                    <mxGeometry x="190" y="25" width="80" height="35" as="geometry"/>
                </mxCell>
                <mxCell id="17" value="frustum" style="text;html=1;strokeColor=none;fillColor=none;align=center;verticalAlign=middle;whiteSpace=wrap;rounded=0;fontSize=6;" vertex="1" parent="1">
                    <mxGeometry x="154" y="26" width="40" height="20" as="geometry"/>
                </mxCell>
                <mxCell id="21" style="edgeStyle=orthogonalEdgeStyle;rounded=0;orthogonalLoop=1;jettySize=auto;html=1;exitX=0;exitY=0.5;exitDx=0;exitDy=0;entryX=1;entryY=0.5;entryDx=0;entryDy=0;fontSize=12;" edge="1" parent="1" source="18" target="15">
                    <mxGeometry relative="1" as="geometry"/>
                </mxCell>
                <object label="Camera" id="18">
                    <mxCell style="rounded=1;whiteSpace=wrap;html=1;fillColor=#60a917;fontSize=12;strokeColor=#2D7600;fontColor=#ffffff;" vertex="1" parent="1">
                        <mxGeometry x="320" y="26" width="70" height="34" as="geometry"/>
                    </mxCell>
                </object>
                <mxCell id="20" value=".frustum" style="text;html=1;strokeColor=none;fillColor=none;align=center;verticalAlign=middle;whiteSpace=wrap;rounded=0;fontSize=6;" vertex="1" parent="1">
                    <mxGeometry x="280" y="27" width="40" height="20" as="geometry"/>
                </mxCell>
            </root>
        </mxGraphModel>
    </diagram>
</mxfile>